<svg width="800" height="200" viewBox="0 0 800 200" xmlns="http://www.w3.org/2000/svg">
  <defs>
    <style>
      /* ---- Parallax Scrolling ---- */
      @keyframes scrollFar  { 0% { transform: translateX(0); } 100% { transform: translateX(-800px); } }
      @keyframes scrollMid  { 0% { transform: translateX(0); } 100% { transform: translateX(-800px); } }
      @keyframes scrollNear { 0% { transform: translateX(0); } 100% { transform: translateX(-800px); } }

      /* ---- Character Walk ---- */
      @keyframes walkCycle {
        0%, 33.32%   { opacity: 1; }
        33.34%, 100% { opacity: 0; }
      }

      /* ---- Floating ---- */
      @keyframes float {
        0%, 100% { transform: translateY(0px); }
        50%      { transform: translateY(-8px); }
      }

      /* ---- Bounce (Question Block) ---- */
      @keyframes bounce {
        0%, 100% { transform: translateY(0px); }
        50%      { transform: translateY(-4px); }
      }

      /* ---- Coin Spin ---- */
      @keyframes coinSpin {
        0%   { transform: scaleX(1); }
        25%  { transform: scaleX(0.3); }
        50%  { transform: scaleX(0); }
        75%  { transform: scaleX(0.3); }
        100% { transform: scaleX(1); }
      }

      /* ---- Rainbow Text ---- */
      @keyframes rainbow {
        0%   { fill: #FF4444; }
        16%  { fill: #FF8800; }
        33%  { fill: #FFDD00; }
        50%  { fill: #44DD44; }
        66%  { fill: #4488FF; }
        83%  { fill: #CC44FF; }
        100% { fill: #FF4444; }
      }

      /* ---- Sparkle / Twinkle ---- */
      @keyframes sparkle {
        0%, 100% { opacity: 0.3; transform: scale(0.8); }
        50%      { opacity: 1;   transform: scale(1.2); }
      }

      /* ---- Blink Cursor ---- */
      @keyframes blink {
        0%, 49%  { opacity: 1; }
        50%, 100% { opacity: 0; }
      }

      /* ---- Glow Pulse ---- */
      @keyframes glowPulse {
        0%, 100% { filter: drop-shadow(0 0 4px rgba(255,215,0,0.5)); }
        50%      { filter: drop-shadow(0 0 12px rgba(255,215,0,0.9)); }
      }

      /* ---- Classes ---- */
      .layer-far  { animation: scrollFar  20s linear infinite; }
      .layer-mid  { animation: scrollMid  14s linear infinite; }
      .layer-near { animation: scrollNear  8s linear infinite; }

      .walk-f1, .walk-f2, .walk-f3 {
        opacity: 0;
        animation: walkCycle 0.4s steps(1) infinite;
      }
      .walk-f1 { animation-delay: 0.000s; }
      .walk-f2 { animation-delay: 0.133s; }
      .walk-f3 { animation-delay: 0.266s; }

      .float   { animation: float 3s ease-in-out infinite; }
      .bounce  { animation: bounce 1.5s ease-in-out infinite; }
      .coin    { animation: coinSpin 1.2s linear infinite; transform-origin: center; }
      .rainbow { animation: rainbow 5s linear infinite; }
      .sparkle { animation: sparkle 2s ease-in-out infinite; }
      .blink-cursor { animation: blink 1s step-end infinite; }
      .glow    { animation: glowPulse 2s ease-in-out infinite; }
    </style>

    <!-- Gradient Sky -->
    <linearGradient id="sky" x1="0" y1="0" x2="0" y2="1">
      <stop offset="0%"   stop-color="#1a0a3e"/>
      <stop offset="40%"  stop-color="#2d1b69"/>
      <stop offset="100%" stop-color="#5C3D99"/>
    </linearGradient>

    <!-- Ground Brick Pattern -->
    <pattern id="brick" width="32" height="16" patternUnits="userSpaceOnUse">
      <rect width="32" height="16" fill="#C84C0C"/>
      <rect x="0"  y="0"  width="15" height="7" fill="#E87040" rx="1"/>
      <rect x="17" y="0"  width="15" height="7" fill="#E87040" rx="1"/>
      <rect x="8"  y="9"  width="15" height="7" fill="#E87040" rx="1"/>
      <rect x="25" y="9"  width="7"  height="7" fill="#E87040" rx="1"/>
      <rect x="0"  y="9"  width="6"  height="7" fill="#E87040" rx="1"/>
    </pattern>

    <!-- Star Shape -->
    <g id="star">
      <polygon points="0,-6 1.5,-2 6,-2 2.5,1 4,5.5 0,3 -4,5.5 -2.5,1 -6,-2 -1.5,-2"
               fill="#FFD700" opacity="0.9"/>
    </g>

    <!-- Cloud -->
    <g id="cloud">
      <ellipse cx="30" cy="18" rx="30" ry="12" fill="white" opacity="0.15"/>
      <ellipse cx="50" cy="12" rx="22" ry="10" fill="white" opacity="0.12"/>
      <ellipse cx="14" cy="14" rx="16" ry="10" fill="white" opacity="0.12"/>
    </g>

    <!-- Coin -->
    <g id="coin-def">
      <ellipse cx="8" cy="10" rx="6" ry="9" fill="#FFD700" stroke="#CC9900" stroke-width="2"/>
      <ellipse cx="8" cy="10" rx="3" ry="7" fill="#FFEE66" opacity="0.5"/>
    </g>
  </defs>

  <!-- ========= BACKGROUND ========= -->
  <rect width="100%" height="100%" fill="url(#sky)"/>

  <!-- Far Layer: Stars -->
  <g class="layer-far">
    <!-- Set 1 -->
    <use href="#star" x="60"   y="25"  class="sparkle" style="animation-delay: 0s;"/>
    <use href="#star" x="150"  y="55"  class="sparkle" style="animation-delay: 0.7s;"/>
    <use href="#star" x="280"  y="18"  class="sparkle" style="animation-delay: 1.2s;"/>
    <use href="#star" x="400"  y="42"  class="sparkle" style="animation-delay: 0.3s;"/>
    <use href="#star" x="520"  y="12"  class="sparkle" style="animation-delay: 1.8s;"/>
    <use href="#star" x="650"  y="50"  class="sparkle" style="animation-delay: 0.5s;"/>
    <use href="#star" x="750"  y="30"  class="sparkle" style="animation-delay: 1.0s;"/>
    <!-- Duplicate set for seamless loop -->
    <use href="#star" x="860"  y="25"  class="sparkle" style="animation-delay: 0s;"/>
    <use href="#star" x="950" y="55"  class="sparkle" style="animation-delay: 0.7s;"/>
    <use href="#star" x="1080" y="18"  class="sparkle" style="animation-delay: 1.2s;"/>
    <use href="#star" x="1200" y="42"  class="sparkle" style="animation-delay: 0.3s;"/>
    <use href="#star" x="1320" y="12"  class="sparkle" style="animation-delay: 1.8s;"/>
    <use href="#star" x="1450" y="50"  class="sparkle" style="animation-delay: 0.5s;"/>
    <use href="#star" x="1550" y="30"  class="sparkle" style="animation-delay: 1.0s;"/>
  </g>

  <!-- Mid Layer: Clouds -->
  <g class="layer-mid">
    <use href="#cloud" x="80"  y="30"/>
    <use href="#cloud" x="300" y="60"/>
    <use href="#cloud" x="560" y="20"/>
    <use href="#cloud" x="720" y="55"/>
    <!-- Duplicate -->
    <use href="#cloud" x="880"  y="30"/>
    <use href="#cloud" x="1100" y="60"/>
    <use href="#cloud" x="1360" y="20"/>
    <use href="#cloud" x="1520" y="55"/>
  </g>

  <!-- Near Layer: Ground, pipes, blocks, coins -->
  <g class="layer-near">
    <!-- Ground -->
    <rect y="168" width="1600" height="32" fill="url(#brick)"/>
    <!-- Top ground edge -->
    <rect y="166" width="1600" height="3" fill="#88CC44" rx="1"/>

    <!-- Question Blocks -->
    <g class="bounce" style="animation-delay: 0s;">
      <g transform="translate(200,100)">
      <rect width="32" height="32" fill="#E07020" stroke="#6B3E08" stroke-width="2" rx="2"/>
      <rect x="2" y="2" width="28" height="28" fill="#FBD000" rx="1"/>
      <rect x="4" y="4" width="24" height="24" fill="#E07020" rx="1"/>
      <text x="16" y="22" font-family="'Courier New',monospace" font-size="16" font-weight="900" fill="#FBD000" text-anchor="middle">?</text>
    </g>
    </g>
    <g class="bounce" style="animation-delay: 0.3s;">
      <g transform="translate(236,100)">
      <rect width="32" height="32" fill="#E07020" stroke="#6B3E08" stroke-width="2" rx="2"/>
      <rect x="2" y="2" width="28" height="28" fill="#FBD000" rx="1"/>
      <rect x="4" y="4" width="24" height="24" fill="#E07020" rx="1"/>
      <text x="16" y="22" font-family="'Courier New',monospace" font-size="16" font-weight="900" fill="#FBD000" text-anchor="middle">?</text>
    </g>
    </g>
    <g class="bounce" style="animation-delay: 0.6s;">
      <g transform="translate(272,100)">
      <rect width="32" height="32" fill="#E07020" stroke="#6B3E08" stroke-width="2" rx="2"/>
      <rect x="2" y="2" width="28" height="28" fill="#FBD000" rx="1"/>
      <rect x="4" y="4" width="24" height="24" fill="#E07020" rx="1"/>
      <text x="16" y="22" font-family="'Courier New',monospace" font-size="16" font-weight="900" fill="#FBD000" text-anchor="middle">?</text>
    </g>
    </g>

    <!-- Pipes -->
    <g transform="translate(500,120)">
      <rect x="0" y="0" width="44" height="14" fill="#00AA00" rx="3"/>
      <rect x="2" y="2" width="8" height="10" fill="#55DD55" rx="1"/>
      <rect x="5" y="14" width="34" height="34" fill="#00AA00"/>
      <rect x="7" y="14" width="6" height="34" fill="#55DD55"/>
      <rect x="40" y="2" width="2" height="10" fill="#005500"/>
      <rect x="36" y="14" width="2" height="34" fill="#005500"/>
    </g>
    <g transform="translate(620,108)">
      <rect x="0" y="0" width="44" height="14" fill="#00AA00" rx="3"/>
      <rect x="2" y="2" width="8" height="10" fill="#55DD55" rx="1"/>
      <rect x="5" y="14" width="34" height="46" fill="#00AA00"/>
      <rect x="7" y="14" width="6" height="46" fill="#55DD55"/>
      <rect x="40" y="2" width="2" height="10" fill="#005500"/>
      <rect x="36" y="14" width="2" height="46" fill="#005500"/>
    </g>

    <!-- Coins (floating above question blocks) -->
    <g class="coin glow" style="animation-delay:0s;"   transform="translate(208, 78)"><use href="#coin-def"/></g>
    <g class="coin glow" style="animation-delay:0.3s;" transform="translate(244, 78)"><use href="#coin-def"/></g>
    <g class="coin glow" style="animation-delay:0.6s;" transform="translate(280, 78)"><use href="#coin-def"/></g>

    <!-- More coins further right -->
    <g class="coin glow" style="animation-delay:0.1s;" transform="translate(700, 120)"><use href="#coin-def"/></g>
    <g class="coin glow" style="animation-delay:0.4s;" transform="translate(720, 120)"><use href="#coin-def"/></g>
    <g class="coin glow" style="animation-delay:0.7s;" transform="translate(740, 120)"><use href="#coin-def"/></g>

    <!-- ---- DUPLICATES for seamless loop ---- -->
    <g class="bounce" style="animation-delay: 0s;">
      <g transform="translate(1000,100)">
      <rect width="32" height="32" fill="#E07020" stroke="#6B3E08" stroke-width="2" rx="2"/>
      <rect x="2" y="2" width="28" height="28" fill="#FBD000" rx="1"/>
      <rect x="4" y="4" width="24" height="24" fill="#E07020" rx="1"/>
      <text x="16" y="22" font-family="'Courier New',monospace" font-size="16" font-weight="900" fill="#FBD000" text-anchor="middle">?</text>
    </g>
    </g>
    <g class="bounce" style="animation-delay: 0.3s;">
      <g transform="translate(1036,100)">
      <rect width="32" height="32" fill="#E07020" stroke="#6B3E08" stroke-width="2" rx="2"/>
      <rect x="2" y="2" width="28" height="28" fill="#FBD000" rx="1"/>
      <rect x="4" y="4" width="24" height="24" fill="#E07020" rx="1"/>
      <text x="16" y="22" font-family="'Courier New',monospace" font-size="16" font-weight="900" fill="#FBD000" text-anchor="middle">?</text>
    </g>
    </g>
    <g class="bounce" style="animation-delay: 0.6s;">
      <g transform="translate(1072,100)">
      <rect width="32" height="32" fill="#E07020" stroke="#6B3E08" stroke-width="2" rx="2"/>
      <rect x="2" y="2" width="28" height="28" fill="#FBD000" rx="1"/>
      <rect x="4" y="4" width="24" height="24" fill="#E07020" rx="1"/>
      <text x="16" y="22" font-family="'Courier New',monospace" font-size="16" font-weight="900" fill="#FBD000" text-anchor="middle">?</text>
    </g>
    </g>
    <g transform="translate(1300,120)">
      <rect x="0" y="0" width="44" height="14" fill="#00AA00" rx="3"/>
      <rect x="2" y="2" width="8" height="10" fill="#55DD55" rx="1"/>
      <rect x="5" y="14" width="34" height="34" fill="#00AA00"/>
      <rect x="7" y="14" width="6" height="34" fill="#55DD55"/>
      <rect x="40" y="2" width="2" height="10" fill="#005500"/>
      <rect x="36" y="14" width="2" height="34" fill="#005500"/>
    </g>
    <g transform="translate(1420,108)">
      <rect x="0" y="0" width="44" height="14" fill="#00AA00" rx="3"/>
      <rect x="2" y="2" width="8" height="10" fill="#55DD55" rx="1"/>
      <rect x="5" y="14" width="34" height="46" fill="#00AA00"/>
      <rect x="7" y="14" width="6" height="46" fill="#55DD55"/>
      <rect x="40" y="2" width="2" height="10" fill="#005500"/>
      <rect x="36" y="14" width="2" height="46" fill="#005500"/>
    </g>
    <g class="coin glow" style="animation-delay:0s;"   transform="translate(1008, 78)"><use href="#coin-def"/></g>
    <g class="coin glow" style="animation-delay:0.3s;" transform="translate(1044, 78)"><use href="#coin-def"/></g>
    <g class="coin glow" style="animation-delay:0.6s;" transform="translate(1080, 78)"><use href="#coin-def"/></g>
    <g class="coin glow" style="animation-delay:0.1s;" transform="translate(1500, 120)"><use href="#coin-def"/></g>
    <g class="coin glow" style="animation-delay:0.4s;" transform="translate(1520, 120)"><use href="#coin-def"/></g>
    <g class="coin glow" style="animation-delay:0.7s;" transform="translate(1540, 120)"><use href="#coin-def"/></g>
  </g>

  <!-- ========= MARIO CHARACTER (static position) ========= -->
  <g transform="translate(60, 100)">
    <g class="walk-f1">
      <rect x="16" y="0" width="4" height="4" fill="#E52521"/>
      <rect x="20" y="0" width="4" height="4" fill="#E52521"/>
      <rect x="24" y="0" width="4" height="4" fill="#E52521"/>
      <rect x="28" y="0" width="4" height="4" fill="#E52521"/>
      <rect x="32" y="0" width="4" height="4" fill="#E52521"/>
      <rect x="12" y="4" width="4" height="4" fill="#E52521"/>
      <rect x="16" y="4" width="4" height="4" fill="#E52521"/>
      <rect x="20" y="4" width="4" height="4" fill="#E52521"/>
      <rect x="24" y="4" width="4" height="4" fill="#E52521"/>
      <rect x="28" y="4" width="4" height="4" fill="#E52521"/>
      <rect x="32" y="4" width="4" height="4" fill="#E52521"/>
      <rect x="36" y="4" width="4" height="4" fill="#E52521"/>
      <rect x="40" y="4" width="4" height="4" fill="#E52521"/>
      <rect x="44" y="4" width="4" height="4" fill="#E52521"/>
      <rect x="12" y="8" width="4" height="4" fill="#6B3E08"/>
      <rect x="16" y="8" width="4" height="4" fill="#6B3E08"/>
      <rect x="20" y="8" width="4" height="4" fill="#6B3E08"/>
      <rect x="24" y="8" width="4" height="4" fill="#FBD000"/>
      <rect x="28" y="8" width="4" height="4" fill="#FBD000"/>
      <rect x="32" y="8" width="4" height="4" fill="#C8A000"/>
      <rect x="36" y="8" width="4" height="4" fill="#6B3E08"/>
      <rect x="8" y="12" width="4" height="4" fill="#6B3E08"/>
      <rect x="12" y="12" width="4" height="4" fill="#FBD000"/>
      <rect x="16" y="12" width="4" height="4" fill="#6B3E08"/>
      <rect x="20" y="12" width="4" height="4" fill="#FBD000"/>
      <rect x="24" y="12" width="4" height="4" fill="#FBD000"/>
      <rect x="28" y="12" width="4" height="4" fill="#FBD000"/>
      <rect x="32" y="12" width="4" height="4" fill="#C8A000"/>
      <rect x="36" y="12" width="4" height="4" fill="#6B3E08"/>
      <rect x="40" y="12" width="4" height="4" fill="#FBD000"/>
      <rect x="8" y="16" width="4" height="4" fill="#6B3E08"/>
      <rect x="12" y="16" width="4" height="4" fill="#FBD000"/>
      <rect x="16" y="16" width="4" height="4" fill="#6B3E08"/>
      <rect x="20" y="16" width="4" height="4" fill="#6B3E08"/>
      <rect x="24" y="16" width="4" height="4" fill="#FBD000"/>
      <rect x="28" y="16" width="4" height="4" fill="#FBD000"/>
      <rect x="32" y="16" width="4" height="4" fill="#FBD000"/>
      <rect x="36" y="16" width="4" height="4" fill="#C8A000"/>
      <rect x="40" y="16" width="4" height="4" fill="#FBD000"/>
      <rect x="44" y="16" width="4" height="4" fill="#FBD000"/>
      <rect x="8" y="20" width="4" height="4" fill="#6B3E08"/>
      <rect x="12" y="20" width="4" height="4" fill="#6B3E08"/>
      <rect x="16" y="20" width="4" height="4" fill="#FBD000"/>
      <rect x="20" y="20" width="4" height="4" fill="#FBD000"/>
      <rect x="24" y="20" width="4" height="4" fill="#FBD000"/>
      <rect x="28" y="20" width="4" height="4" fill="#FBD000"/>
      <rect x="32" y="20" width="4" height="4" fill="#C8A000"/>
      <rect x="36" y="20" width="4" height="4" fill="#6B3E08"/>
      <rect x="16" y="24" width="4" height="4" fill="#FBD000"/>
      <rect x="20" y="24" width="4" height="4" fill="#FBD000"/>
      <rect x="24" y="24" width="4" height="4" fill="#FBD000"/>
      <rect x="28" y="24" width="4" height="4" fill="#FBD000"/>
      <rect x="32" y="24" width="4" height="4" fill="#FBD000"/>
      <rect x="36" y="24" width="4" height="4" fill="#FBD000"/>
      <rect x="8" y="28" width="4" height="4" fill="#E52521"/>
      <rect x="12" y="28" width="4" height="4" fill="#E52521"/>
      <rect x="16" y="28" width="4" height="4" fill="#0050CC"/>
      <rect x="20" y="28" width="4" height="4" fill="#E52521"/>
      <rect x="24" y="28" width="4" height="4" fill="#E52521"/>
      <rect x="28" y="28" width="4" height="4" fill="#E52521"/>
      <rect x="32" y="28" width="4" height="4" fill="#003388"/>
      <rect x="0" y="32" width="4" height="4" fill="#FBD000"/>
      <rect x="4" y="32" width="4" height="4" fill="#E52521"/>
      <rect x="8" y="32" width="4" height="4" fill="#E52521"/>
      <rect x="12" y="32" width="4" height="4" fill="#E52521"/>
      <rect x="16" y="32" width="4" height="4" fill="#0050CC"/>
      <rect x="20" y="32" width="4" height="4" fill="#0050CC"/>
      <rect x="24" y="32" width="4" height="4" fill="#0050CC"/>
      <rect x="28" y="32" width="4" height="4" fill="#E52521"/>
      <rect x="32" y="32" width="4" height="4" fill="#E52521"/>
      <rect x="36" y="32" width="4" height="4" fill="#E52521"/>
      <rect x="40" y="32" width="4" height="4" fill="#003388"/>
      <rect x="44" y="32" width="4" height="4" fill="#FBD000"/>
      <rect x="0" y="36" width="4" height="4" fill="#FBD000"/>
      <rect x="4" y="36" width="4" height="4" fill="#FBD000"/>
      <rect x="8" y="36" width="4" height="4" fill="#E52521"/>
      <rect x="12" y="36" width="4" height="4" fill="#0050CC"/>
      <rect x="16" y="36" width="4" height="4" fill="#0050CC"/>
      <rect x="20" y="36" width="4" height="4" fill="#FFD700"/>
      <rect x="24" y="36" width="4" height="4" fill="#0050CC"/>
      <rect x="28" y="36" width="4" height="4" fill="#0050CC"/>
      <rect x="32" y="36" width="4" height="4" fill="#E52521"/>
      <rect x="36" y="36" width="4" height="4" fill="#003388"/>
      <rect x="40" y="36" width="4" height="4" fill="#FBD000"/>
      <rect x="44" y="36" width="4" height="4" fill="#FBD000"/>
      <rect x="8" y="40" width="4" height="4" fill="#0050CC"/>
      <rect x="12" y="40" width="4" height="4" fill="#0050CC"/>
      <rect x="16" y="40" width="4" height="4" fill="#0050CC"/>
      <rect x="20" y="40" width="4" height="4" fill="#0050CC"/>
      <rect x="24" y="40" width="4" height="4" fill="#0050CC"/>
      <rect x="28" y="40" width="4" height="4" fill="#0050CC"/>
      <rect x="32" y="40" width="4" height="4" fill="#0050CC"/>
      <rect x="36" y="40" width="4" height="4" fill="#0050CC"/>
      <rect x="8" y="44" width="4" height="4" fill="#0050CC"/>
      <rect x="12" y="44" width="4" height="4" fill="#0050CC"/>
      <rect x="16" y="44" width="4" height="4" fill="#0050CC"/>
      <rect x="20" y="44" width="4" height="4" fill="#0050CC"/>
      <rect x="24" y="44" width="4" height="4" fill="#0050CC"/>
      <rect x="28" y="44" width="4" height="4" fill="#0050CC"/>
      <rect x="32" y="44" width="4" height="4" fill="#0050CC"/>
      <rect x="36" y="44" width="4" height="4" fill="#0050CC"/>
      <rect x="8" y="48" width="4" height="4" fill="#0050CC"/>
      <rect x="12" y="48" width="4" height="4" fill="#0050CC"/>
      <rect x="16" y="48" width="4" height="4" fill="#0050CC"/>
      <rect x="28" y="48" width="4" height="4" fill="#0050CC"/>
      <rect x="32" y="48" width="4" height="4" fill="#0050CC"/>
      <rect x="36" y="48" width="4" height="4" fill="#0050CC"/>
      <rect x="4" y="52" width="4" height="4" fill="#6B3E08"/>
      <rect x="8" y="52" width="4" height="4" fill="#6B3E08"/>
      <rect x="12" y="52" width="4" height="4" fill="#6B3E08"/>
      <rect x="32" y="52" width="4" height="4" fill="#6B3E08"/>
      <rect x="36" y="52" width="4" height="4" fill="#6B3E08"/>
      <rect x="40" y="52" width="4" height="4" fill="#6B3E08"/>
      <rect x="0" y="56" width="4" height="4" fill="#6B3E08"/>
      <rect x="4" y="56" width="4" height="4" fill="#6B3E08"/>
      <rect x="8" y="56" width="4" height="4" fill="#6B3E08"/>
      <rect x="12" y="56" width="4" height="4" fill="#6B3E08"/>
      <rect x="32" y="56" width="4" height="4" fill="#6B3E08"/>
      <rect x="36" y="56" width="4" height="4" fill="#6B3E08"/>
      <rect x="40" y="56" width="4" height="4" fill="#6B3E08"/>
      <rect x="44" y="56" width="4" height="4" fill="#6B3E08"/>
    </g>
    <g class="walk-f2">
      <rect x="16" y="0" width="4" height="4" fill="#E52521"/>
      <rect x="20" y="0" width="4" height="4" fill="#E52521"/>
      <rect x="24" y="0" width="4" height="4" fill="#E52521"/>
      <rect x="28" y="0" width="4" height="4" fill="#E52521"/>
      <rect x="32" y="0" width="4" height="4" fill="#E52521"/>
      <rect x="12" y="4" width="4" height="4" fill="#E52521"/>
      <rect x="16" y="4" width="4" height="4" fill="#E52521"/>
      <rect x="20" y="4" width="4" height="4" fill="#E52521"/>
      <rect x="24" y="4" width="4" height="4" fill="#E52521"/>
      <rect x="28" y="4" width="4" height="4" fill="#E52521"/>
      <rect x="32" y="4" width="4" height="4" fill="#E52521"/>
      <rect x="36" y="4" width="4" height="4" fill="#E52521"/>
      <rect x="40" y="4" width="4" height="4" fill="#E52521"/>
      <rect x="44" y="4" width="4" height="4" fill="#E52521"/>
      <rect x="12" y="8" width="4" height="4" fill="#6B3E08"/>
      <rect x="16" y="8" width="4" height="4" fill="#6B3E08"/>
      <rect x="20" y="8" width="4" height="4" fill="#6B3E08"/>
      <rect x="24" y="8" width="4" height="4" fill="#FBD000"/>
      <rect x="28" y="8" width="4" height="4" fill="#FBD000"/>
      <rect x="32" y="8" width="4" height="4" fill="#C8A000"/>
      <rect x="36" y="8" width="4" height="4" fill="#6B3E08"/>
      <rect x="8" y="12" width="4" height="4" fill="#6B3E08"/>
      <rect x="12" y="12" width="4" height="4" fill="#FBD000"/>
      <rect x="16" y="12" width="4" height="4" fill="#6B3E08"/>
      <rect x="20" y="12" width="4" height="4" fill="#FBD000"/>
      <rect x="24" y="12" width="4" height="4" fill="#FBD000"/>
      <rect x="28" y="12" width="4" height="4" fill="#FBD000"/>
      <rect x="32" y="12" width="4" height="4" fill="#C8A000"/>
      <rect x="36" y="12" width="4" height="4" fill="#6B3E08"/>
      <rect x="40" y="12" width="4" height="4" fill="#FBD000"/>
      <rect x="8" y="16" width="4" height="4" fill="#6B3E08"/>
      <rect x="12" y="16" width="4" height="4" fill="#FBD000"/>
      <rect x="16" y="16" width="4" height="4" fill="#6B3E08"/>
      <rect x="20" y="16" width="4" height="4" fill="#6B3E08"/>
      <rect x="24" y="16" width="4" height="4" fill="#FBD000"/>
      <rect x="28" y="16" width="4" height="4" fill="#FBD000"/>
      <rect x="32" y="16" width="4" height="4" fill="#FBD000"/>
      <rect x="36" y="16" width="4" height="4" fill="#C8A000"/>
      <rect x="40" y="16" width="4" height="4" fill="#FBD000"/>
      <rect x="44" y="16" width="4" height="4" fill="#FBD000"/>
      <rect x="8" y="20" width="4" height="4" fill="#6B3E08"/>
      <rect x="12" y="20" width="4" height="4" fill="#6B3E08"/>
      <rect x="16" y="20" width="4" height="4" fill="#FBD000"/>
      <rect x="20" y="20" width="4" height="4" fill="#FBD000"/>
      <rect x="24" y="20" width="4" height="4" fill="#FBD000"/>
      <rect x="28" y="20" width="4" height="4" fill="#FBD000"/>
      <rect x="32" y="20" width="4" height="4" fill="#C8A000"/>
      <rect x="36" y="20" width="4" height="4" fill="#6B3E08"/>
      <rect x="16" y="24" width="4" height="4" fill="#FBD000"/>
      <rect x="20" y="24" width="4" height="4" fill="#FBD000"/>
      <rect x="24" y="24" width="4" height="4" fill="#FBD000"/>
      <rect x="28" y="24" width="4" height="4" fill="#FBD000"/>
      <rect x="32" y="24" width="4" height="4" fill="#FBD000"/>
      <rect x="36" y="24" width="4" height="4" fill="#FBD000"/>
      <rect x="12" y="28" width="4" height="4" fill="#E52521"/>
      <rect x="16" y="28" width="4" height="4" fill="#E52521"/>
      <rect x="20" y="28" width="4" height="4" fill="#0050CC"/>
      <rect x="24" y="28" width="4" height="4" fill="#E52521"/>
      <rect x="28" y="28" width="4" height="4" fill="#E52521"/>
      <rect x="8" y="32" width="4" height="4" fill="#E52521"/>
      <rect x="12" y="32" width="4" height="4" fill="#E52521"/>
      <rect x="16" y="32" width="4" height="4" fill="#0050CC"/>
      <rect x="20" y="32" width="4" height="4" fill="#0050CC"/>
      <rect x="24" y="32" width="4" height="4" fill="#0050CC"/>
      <rect x="28" y="32" width="4" height="4" fill="#E52521"/>
      <rect x="32" y="32" width="4" height="4" fill="#E52521"/>
      <rect x="36" y="32" width="4" height="4" fill="#003388"/>
      <rect x="4" y="36" width="4" height="4" fill="#E52521"/>
      <rect x="8" y="36" width="4" height="4" fill="#E52521"/>
      <rect x="12" y="36" width="4" height="4" fill="#0050CC"/>
      <rect x="16" y="36" width="4" height="4" fill="#0050CC"/>
      <rect x="20" y="36" width="4" height="4" fill="#FFD700"/>
      <rect x="24" y="36" width="4" height="4" fill="#0050CC"/>
      <rect x="28" y="36" width="4" height="4" fill="#0050CC"/>
      <rect x="32" y="36" width="4" height="4" fill="#E52521"/>
      <rect x="36" y="36" width="4" height="4" fill="#E52521"/>
      <rect x="40" y="36" width="4" height="4" fill="#003388"/>
      <rect x="4" y="40" width="4" height="4" fill="#FBD000"/>
      <rect x="8" y="40" width="4" height="4" fill="#FBD000"/>
      <rect x="12" y="40" width="4" height="4" fill="#0050CC"/>
      <rect x="16" y="40" width="4" height="4" fill="#0050CC"/>
      <rect x="20" y="40" width="4" height="4" fill="#0050CC"/>
      <rect x="24" y="40" width="4" height="4" fill="#0050CC"/>
      <rect x="28" y="40" width="4" height="4" fill="#0050CC"/>
      <rect x="32" y="40" width="4" height="4" fill="#0050CC"/>
      <rect x="36" y="40" width="4" height="4" fill="#FBD000"/>
      <rect x="40" y="40" width="4" height="4" fill="#FBD000"/>
      <rect x="12" y="44" width="4" height="4" fill="#0050CC"/>
      <rect x="16" y="44" width="4" height="4" fill="#0050CC"/>
      <rect x="20" y="44" width="4" height="4" fill="#0050CC"/>
      <rect x="24" y="44" width="4" height="4" fill="#0050CC"/>
      <rect x="28" y="44" width="4" height="4" fill="#0050CC"/>
      <rect x="32" y="44" width="4" height="4" fill="#0050CC"/>
      <rect x="8" y="48" width="4" height="4" fill="#0050CC"/>
      <rect x="12" y="48" width="4" height="4" fill="#0050CC"/>
      <rect x="32" y="48" width="4" height="4" fill="#0050CC"/>
      <rect x="36" y="48" width="4" height="4" fill="#0050CC"/>
      <rect x="4" y="52" width="4" height="4" fill="#6B3E08"/>
      <rect x="8" y="52" width="4" height="4" fill="#6B3E08"/>
      <rect x="12" y="52" width="4" height="4" fill="#6B3E08"/>
      <rect x="32" y="52" width="4" height="4" fill="#6B3E08"/>
      <rect x="36" y="52" width="4" height="4" fill="#6B3E08"/>
      <rect x="40" y="52" width="4" height="4" fill="#6B3E08"/>
    </g>
    <g class="walk-f3">
      <rect x="16" y="0" width="4" height="4" fill="#E52521"/>
      <rect x="20" y="0" width="4" height="4" fill="#E52521"/>
      <rect x="24" y="0" width="4" height="4" fill="#E52521"/>
      <rect x="28" y="0" width="4" height="4" fill="#E52521"/>
      <rect x="32" y="0" width="4" height="4" fill="#E52521"/>
      <rect x="12" y="4" width="4" height="4" fill="#E52521"/>
      <rect x="16" y="4" width="4" height="4" fill="#E52521"/>
      <rect x="20" y="4" width="4" height="4" fill="#E52521"/>
      <rect x="24" y="4" width="4" height="4" fill="#E52521"/>
      <rect x="28" y="4" width="4" height="4" fill="#E52521"/>
      <rect x="32" y="4" width="4" height="4" fill="#E52521"/>
      <rect x="36" y="4" width="4" height="4" fill="#E52521"/>
      <rect x="40" y="4" width="4" height="4" fill="#E52521"/>
      <rect x="44" y="4" width="4" height="4" fill="#E52521"/>
      <rect x="12" y="8" width="4" height="4" fill="#6B3E08"/>
      <rect x="16" y="8" width="4" height="4" fill="#6B3E08"/>
      <rect x="20" y="8" width="4" height="4" fill="#6B3E08"/>
      <rect x="24" y="8" width="4" height="4" fill="#FBD000"/>
      <rect x="28" y="8" width="4" height="4" fill="#FBD000"/>
      <rect x="32" y="8" width="4" height="4" fill="#C8A000"/>
      <rect x="36" y="8" width="4" height="4" fill="#6B3E08"/>
      <rect x="8" y="12" width="4" height="4" fill="#6B3E08"/>
      <rect x="12" y="12" width="4" height="4" fill="#FBD000"/>
      <rect x="16" y="12" width="4" height="4" fill="#6B3E08"/>
      <rect x="20" y="12" width="4" height="4" fill="#FBD000"/>
      <rect x="24" y="12" width="4" height="4" fill="#FBD000"/>
      <rect x="28" y="12" width="4" height="4" fill="#FBD000"/>
      <rect x="32" y="12" width="4" height="4" fill="#C8A000"/>
      <rect x="36" y="12" width="4" height="4" fill="#6B3E08"/>
      <rect x="40" y="12" width="4" height="4" fill="#FBD000"/>
      <rect x="8" y="16" width="4" height="4" fill="#6B3E08"/>
      <rect x="12" y="16" width="4" height="4" fill="#FBD000"/>
      <rect x="16" y="16" width="4" height="4" fill="#6B3E08"/>
      <rect x="20" y="16" width="4" height="4" fill="#6B3E08"/>
      <rect x="24" y="16" width="4" height="4" fill="#FBD000"/>
      <rect x="28" y="16" width="4" height="4" fill="#FBD000"/>
      <rect x="32" y="16" width="4" height="4" fill="#FBD000"/>
      <rect x="36" y="16" width="4" height="4" fill="#C8A000"/>
      <rect x="40" y="16" width="4" height="4" fill="#FBD000"/>
      <rect x="44" y="16" width="4" height="4" fill="#FBD000"/>
      <rect x="8" y="20" width="4" height="4" fill="#6B3E08"/>
      <rect x="12" y="20" width="4" height="4" fill="#6B3E08"/>
      <rect x="16" y="20" width="4" height="4" fill="#FBD000"/>
      <rect x="20" y="20" width="4" height="4" fill="#FBD000"/>
      <rect x="24" y="20" width="4" height="4" fill="#FBD000"/>
      <rect x="28" y="20" width="4" height="4" fill="#FBD000"/>
      <rect x="32" y="20" width="4" height="4" fill="#C8A000"/>
      <rect x="36" y="20" width="4" height="4" fill="#6B3E08"/>
      <rect x="16" y="24" width="4" height="4" fill="#FBD000"/>
      <rect x="20" y="24" width="4" height="4" fill="#FBD000"/>
      <rect x="24" y="24" width="4" height="4" fill="#FBD000"/>
      <rect x="28" y="24" width="4" height="4" fill="#FBD000"/>
      <rect x="32" y="24" width="4" height="4" fill="#FBD000"/>
      <rect x="36" y="24" width="4" height="4" fill="#FBD000"/>
      <rect x="12" y="28" width="4" height="4" fill="#E52521"/>
      <rect x="16" y="28" width="4" height="4" fill="#E52521"/>
      <rect x="20" y="28" width="4" height="4" fill="#0050CC"/>
      <rect x="24" y="28" width="4" height="4" fill="#E52521"/>
      <rect x="28" y="28" width="4" height="4" fill="#E52521"/>
      <rect x="32" y="28" width="4" height="4" fill="#003388"/>
      <rect x="12" y="32" width="4" height="4" fill="#E52521"/>
      <rect x="16" y="32" width="4" height="4" fill="#0050CC"/>
      <rect x="20" y="32" width="4" height="4" fill="#0050CC"/>
      <rect x="24" y="32" width="4" height="4" fill="#0050CC"/>
      <rect x="28" y="32" width="4" height="4" fill="#E52521"/>
      <rect x="32" y="32" width="4" height="4" fill="#E52521"/>
      <rect x="36" y="32" width="4" height="4" fill="#003388"/>
      <rect x="8" y="36" width="4" height="4" fill="#E52521"/>
      <rect x="12" y="36" width="4" height="4" fill="#0050CC"/>
      <rect x="16" y="36" width="4" height="4" fill="#0050CC"/>
      <rect x="20" y="36" width="4" height="4" fill="#FFD700"/>
      <rect x="24" y="36" width="4" height="4" fill="#0050CC"/>
      <rect x="28" y="36" width="4" height="4" fill="#0050CC"/>
      <rect x="32" y="36" width="4" height="4" fill="#E52521"/>
      <rect x="36" y="36" width="4" height="4" fill="#E52521"/>
      <rect x="40" y="36" width="4" height="4" fill="#003388"/>
      <rect x="8" y="40" width="4" height="4" fill="#E52521"/>
      <rect x="12" y="40" width="4" height="4" fill="#0050CC"/>
      <rect x="16" y="40" width="4" height="4" fill="#0050CC"/>
      <rect x="20" y="40" width="4" height="4" fill="#0050CC"/>
      <rect x="24" y="40" width="4" height="4" fill="#0050CC"/>
      <rect x="28" y="40" width="4" height="4" fill="#0050CC"/>
      <rect x="32" y="40" width="4" height="4" fill="#0050CC"/>
      <rect x="36" y="40" width="4" height="4" fill="#FBD000"/>
      <rect x="40" y="40" width="4" height="4" fill="#FBD000"/>
      <rect x="12" y="44" width="4" height="4" fill="#0050CC"/>
      <rect x="16" y="44" width="4" height="4" fill="#0050CC"/>
      <rect x="20" y="44" width="4" height="4" fill="#0050CC"/>
      <rect x="24" y="44" width="4" height="4" fill="#0050CC"/>
      <rect x="28" y="44" width="4" height="4" fill="#0050CC"/>
      <rect x="32" y="44" width="4" height="4" fill="#0050CC"/>
      <rect x="12" y="48" width="4" height="4" fill="#0050CC"/>
      <rect x="16" y="48" width="4" height="4" fill="#0050CC"/>
      <rect x="28" y="48" width="4" height="4" fill="#0050CC"/>
      <rect x="32" y="48" width="4" height="4" fill="#0050CC"/>
      <rect x="36" y="48" width="4" height="4" fill="#0050CC"/>
      <rect x="8" y="52" width="4" height="4" fill="#6B3E08"/>
      <rect x="12" y="52" width="4" height="4" fill="#6B3E08"/>
      <rect x="16" y="52" width="4" height="4" fill="#6B3E08"/>
      <rect x="28" y="52" width="4" height="4" fill="#6B3E08"/>
      <rect x="32" y="52" width="4" height="4" fill="#6B3E08"/>
      <rect x="36" y="52" width="4" height="4" fill="#6B3E08"/>
      <rect x="4" y="56" width="4" height="4" fill="#6B3E08"/>
      <rect x="8" y="56" width="4" height="4" fill="#6B3E08"/>
      <rect x="12" y="56" width="4" height="4" fill="#6B3E08"/>
      <rect x="28" y="56" width="4" height="4" fill="#6B3E08"/>
      <rect x="32" y="56" width="4" height="4" fill="#6B3E08"/>
      <rect x="36" y="56" width="4" height="4" fill="#6B3E08"/>
    </g>
  </g>

  <!-- ========= TEXT OVERLAY ========= -->
  <!-- Main Title -->
  <g class="float" transform="translate(400, 46)">
    <!-- Shadow -->
    <text x="2" y="2"
      font-family="'Courier New', Courier, monospace"
      font-size="30" font-weight="900" text-anchor="middle"
      fill="#000" opacity="0.5">
      It&apos;s Me Mario
    </text>
    <!-- Rainbow text -->
    <text x="0" y="0"
      font-family="'Courier New', Courier, monospace"
      font-size="30" font-weight="900" text-anchor="middle"
      class="rainbow">
      It&apos;s Me Mario
    </text>
  </g>

  <!-- Tagline -->
  <g transform="translate(400, 74)">
    <!-- Shadow -->
    <text x="1" y="1"
      font-family="'Courier New', Courier, monospace"
      font-size="14" font-weight="700" text-anchor="middle"
      fill="#000" opacity="0.4">
      full-stack  |  open source  |  gaming
    </text>
    <text x="0" y="0"
      font-family="'Courier New', Courier, monospace"
      font-size="14" font-weight="700" text-anchor="middle"
      fill="#E0D0FF">
      full-stack  |  open source  |  gaming
    </text>
  </g>

  <!-- Decorative "PRESS START" blinking -->
  <g transform="translate(400, 152)">
    <text
      font-family="'Courier New', Courier, monospace"
      font-size="11" font-weight="bold" text-anchor="middle"
      fill="#FFD700" class="blink-cursor">
      &#x25B6;  PRESS START  &#x25C0;
    </text>
  </g>

  <!-- Score HUD top-left -->
  <g transform="translate(16, 18)">
    <text font-family="'Courier New', Courier, monospace"
          font-size="10" font-weight="bold" fill="#FFFFFF" opacity="0.7">
      SCORE
    </text>
    <text font-family="'Courier New', Courier, monospace"
          font-size="10" font-weight="bold" fill="#FFFFFF" opacity="0.7"
          y="14">
      001337
    </text>
  </g>

  <!-- Lives HUD top-right -->
  <g transform="translate(730, 18)">
    <text font-family="'Courier New', Courier, monospace"
          font-size="10" font-weight="bold" fill="#FFFFFF" opacity="0.7">
      WORLD
    </text>
    <text font-family="'Courier New', Courier, monospace"
          font-size="10" font-weight="bold" fill="#FFFFFF" opacity="0.7"
          y="14">
      &#x2605; 1-1
    </text>
  </g>

  <!-- Subtle vignette overlay -->
  <rect width="100%" height="100%" fill="url(#sky)" opacity="0" pointer-events="none"/>
</svg>
